<svg width="24" height="24" xmlns="http://www.w3.org/2000/svg">

 <g>
  <title>background</title>
  <rect fill="none" id="canvas_background" height="402" width="582" y="-1" x="-1"/>
 </g>
 <g>
  <title>Layer 1</title>
  <path fill-opacity="0" id="svg_1" stroke-width="2" stroke-linejoin="round" stroke-linecap="round" stroke="#ffffff" fill="#000000" d="m9,19c-5,1.5 -5,-2.5 -7,-3m14,6l0,-3.87a3.37,3.37 0 0 0 -0.94,-2.61c3.14,-0.35 6.44,-1.54 6.44,-7a5.44,5.44 0 0 0 -1.5,-3.75a5.07,5.07 0 0 0 -0.09,-3.77s-1.18,-0.35 -3.91,1.48a13.38,13.38 0 0 0 -7,0c-2.73,-1.83 -3.91,-1.48 -3.91,-1.48a5.07,5.07 0 0 0 -0.09,3.77a5.44,5.44 0 0 0 -1.5,3.78c0,5.42 3.3,6.61 6.44,7a3.37,3.37 0 0 0 -0.94,2.58l0,3.87"/>
 </g>
</svg>