<svg width="64" height="64" xmlns="http://www.w3.org/2000/svg">
 <title/>

 <g>
  <title>background</title>
  <rect fill="none" id="canvas_background" height="402" width="582" y="-1" x="-1"/>
 </g>
 <g>
  <title>Layer 1</title>
  <path fill="#7277a0" id="svg_1" d="m32,11l-2,0a3,3 0 0 0 -3,3l0,40a3,3 0 0 0 3,3l2,0a3,3 0 0 0 3,-3l0,-40a3,3 0 0 0 -3,-3zm1,8l-4,0l0,-5a1,1 0 0 1 1,-1l2,0a1,1 0 0 1 1,1l0,5z"/>
  <path fill="#7277a0" id="svg_2" d="m43,11l-2,0a3,3 0 0 0 -3,3l0,40a3,3 0 0 0 3,3l2,0a3,3 0 0 0 3,-3l0,-40a3,3 0 0 0 -3,-3zm1,22l-4,0l0,-19a1,1 0 0 1 1,-1l2,0a1,1 0 0 1 1,1l0,19z"/>
  <path fill="#7277a0" id="svg_3" d="m54,11l-2,0a3,3 0 0 0 -3,3l0,40a3,3 0 0 0 3,3l2,0a3,3 0 0 0 3,-3l0,-40a3,3 0 0 0 -3,-3zm1,15l-4,0l0,-12a1,1 0 0 1 1,-1l2,0a1,1 0 0 1 1,1l0,12z"/>
  <path stroke="null" fill="#7277a0" id="svg_4" d="m22.753088,51.678758l0,4.897906l-2.416663,0l0,-4.897906a7.249988,7.593653 0 0 0 -2.126663,-5.378837a7.334571,7.682245 0 0 0 -2.307913,-1.607323l-0.0725,0a7.117072,7.454436 0 0 1 -1.208331,0.341714l-0.18125,0a7.999154,8.37833 0 0 1 -1.329164,0.113905a8.107903,8.492235 0 0 1 -1.353331,-0.113905l-0.18125,0a7.117072,7.454436 0 0 1 -1.208331,-0.341714l-0.0725,0a7.249988,7.593653 0 0 0 -4.458743,6.986161l0,4.897906l-2.416663,0l0,-4.897906a9.666651,10.12487 0 0 1 4.362076,-8.416298a8.603319,9.011135 0 0 1 5.304575,-16.098544a7.648737,8.011304 0 0 1 1.401664,0.126561l0,0a8.554986,8.96051 0 0 1 7.056655,7.264594a9.437068,9.884405 0 0 1 0.145,1.619979a8.458319,8.859262 0 0 1 -3.286661,7.062097a11.225398,11.757506 0 0 1 1.510414,1.265609a9.666651,10.12487 0 0 1 2.839579,7.176002z"/>
 </g>
</svg>