<svg width="64" height="64" xmlns="http://www.w3.org/2000/svg">
 <title/>

 <g>
  <title>background</title>
  <rect fill="none" id="canvas_background" height="402" width="582" y="-1" x="-1"/>
 </g>
 <g>
  <title>Layer 1</title>
  <path fill="#9a9fd9" id="svg_1" d="m32,11l-2,0a3,3 0 0 0 -3,3l0,40a3,3 0 0 0 3,3l2,0a3,3 0 0 0 3,-3l0,-40a3,3 0 0 0 -3,-3zm1,8l-4,0l0,-5a1,1 0 0 1 1,-1l2,0a1,1 0 0 1 1,1l0,5z"/>
  <path fill="#9a9fd9" id="svg_2" d="m43,11l-2,0a3,3 0 0 0 -3,3l0,40a3,3 0 0 0 3,3l2,0a3,3 0 0 0 3,-3l0,-40a3,3 0 0 0 -3,-3zm1,22l-4,0l0,-19a1,1 0 0 1 1,-1l2,0a1,1 0 0 1 1,1l0,19z"/>
  <path fill="#9a9fd9" id="svg_3" d="m54,11l-2,0a3,3 0 0 0 -3,3l0,40a3,3 0 0 0 3,3l2,0a3,3 0 0 0 3,-3l0,-40a3,3 0 0 0 -3,-3zm1,15l-4,0l0,-12a1,1 0 0 1 1,-1l2,0a1,1 0 0 1 1,1l0,12z"/>
  <path stroke="null" fill="#9a9fd9" id="svg_4" d="m23,51.092877l0,5.248851l-2.400658,0l0,-5.248851a7.201975,8.137753 0 0 0 -2.112579,-5.764242a7.285998,8.232694 0 0 0 -2.292629,-1.722491l-0.07202,0a7.069939,7.988561 0 0 1 -1.200329,0.366199l-0.180049,0a7.946179,8.978654 0 0 1 -1.320362,0.122066a8.054209,9.100721 0 0 1 -1.344369,-0.122066l-0.180049,0a7.069939,7.988561 0 0 1 -1.200329,-0.366199l-0.07202,0a7.201975,8.137753 0 0 0 -4.429215,7.486733l0,5.248851l-2.400658,0l0,-5.248851a9.602634,10.850338 0 0 1 4.333188,-9.019343a8.546344,9.6568 0 0 1 5.269445,-17.252037a7.598084,8.58533 0 0 1 1.392382,0.135629l0,0a8.498331,9.602549 0 0 1 7.009923,7.785117a9.374571,10.592642 0 0 1 0.14404,1.736054a8.402304,9.494045 0 0 1 -3.264895,7.56811a11.151058,12.599955 0 0 1 1.500412,1.356292a9.602634,10.850338 0 0 1 2.820774,7.690177z"/>
 </g>
</svg>