<svg width="23.999999999999996" height="23.999999999999996" xmlns="http://www.w3.org/2000/svg">

 <g>
  <title>background</title>
  <rect fill="none" id="canvas_background" height="402" width="582" y="-1" x="-1"/>
 </g>
 <g>
  <title>Layer 1</title>
  <path fill="#ffffff" id="svg_1" fill-rule="evenodd" d="m22.506,21l0,0.016l-5.506,-5.505l0,3.489c0,1.105 -0.896,2 -2,2l-1.5,0l-10.5,0l-1,0c-1.104,0 -2,-0.895 -2,-2l0,-1l0,0l0,-12l0,0l0,-1c0,-1.104 0.896,-1.999 2,-1.999l1,0l0,0l10.5,0l0,0l1.5,0c1.104,0 2,0.895 2,1.999l0,3.516l5.5,-5.5l0,-0.015c0.828,0 1.5,0.671 1.5,1.499l0,15c0,0.827 -0.669,1.496 -1.494,1.5z" clip-rule="evenodd"/>
 </g>
</svg>