<svg width="100" height="100" xmlns="http://www.w3.org/2000/svg">

 <g>
  <title>background</title>
  <rect fill="none" id="canvas_background" height="402" width="582" y="-1" x="-1"/>
 </g>
 <g>
  <title>Layer 1</title>
  <polygon id="svg_2" points="18.342,65.539 49.979,65.539 49.982,65.539 81.256,65.539 81.256,24.472 18.342,24.472  " fill="none"/>
  <path fill="#ffffff" id="svg_3" d="m93.789,10.802l-87.578,0c-0.669,0 -1.211,0.541 -1.211,1.21c0,0.668 0.542,1.211 1.211,1.211l42.578,0l0,8.828l-31.658,0c-0.669,0 -1.211,0.542 -1.211,1.211l0,43.488c0,0.669 0.542,1.211 1.211,1.211l29.833,0l-20.196,19.148c-0.485,0.46 -0.505,1.226 -0.045,1.711c0.461,0.486 1.227,0.506 1.712,0.045l20.355,-19.3l0,18.421c0,0.669 0.542,1.211 1.211,1.211c0.669,0 1.211,-0.542 1.211,-1.211l0,-18.38l19.892,19.251c0.235,0.228 0.539,0.341 0.842,0.341c0.316,0 0.633,-0.123 0.87,-0.369c0.464,-0.481 0.452,-1.247 -0.029,-1.712l-19.795,-19.157l29.474,0c0.669,0 1.211,-0.542 1.211,-1.211l0,-43.488c0,-0.669 -0.542,-1.211 -1.211,-1.211l-31.255,0l0,-8.828l42.578,0c0.669,0 1.211,-0.543 1.211,-1.211c0,-0.668 -0.542,-1.209 -1.211,-1.209zm-12.533,13.67l0,41.066l-31.274,0l-0.003,0l-31.637,0l0,-41.066l62.914,0z"/>
 </g>
</svg>