<?xml version="1.0" ?><svg id="Layer_1" style="enable-background:new 0 0 512 512;" version="1.1" viewBox="0 0 512 512" xml:space="preserve" xmlns="http://www.w3.org/2000/svg" xmlns:xlink="http://www.w3.org/1999/xlink"><g><path d="M6,496.9h82.6V152.7H6V496.9z M19.4,283h55.9v200.6H19.4V283z"/><path d="M110.3,496.9H193V15.1h-82.6V496.9z M123.7,196h55.9v287.5h-55.9V196z"/><path d="M214.7,496.9h82.6V357.1h-82.6V496.9z M228,412.1H284v71.4H228V412.1z"/><path d="M319,496.9h82.6V227.7H319V496.9z M332.4,330.3h55.9v153.2h-55.9V330.3z"/><path d="M423.4,48.2v448.7H506V48.2H423.4z M492.6,483.6h-55.9V217h55.9V483.6z"/></g></svg>