<svg width="512" height="512" xmlns="http://www.w3.org/2000/svg">

 <g>
  <title>background</title>
  <rect fill="none" id="canvas_background" height="402" width="582" y="-1" x="-1"/>
 </g>
 <g>
  <title>Layer 1</title>
  <path fill="#785494" id="svg_2" d="m6,496.9l82.6,0l0,-344.2l-82.6,0l0,344.2zm13.4,-213.9l55.9,0l0,200.6l-55.9,0l0,-200.6z"/>
  <path fill="#785494" id="svg_3" d="m110.3,496.9l82.7,0l0,-481.8l-82.6,0l0,481.8l-0.1,0zm13.4,-300.9l55.9,0l0,287.5l-55.9,0l0,-287.5z"/>
  <path fill="#785494" id="svg_4" d="m214.7,496.9l82.6,0l0,-139.8l-82.6,0l0,139.8zm13.3,-84.8l56,0l0,71.4l-56,0l0,-71.4z"/>
  <path fill="#785494" id="svg_5" d="m319,496.9l82.6,0l0,-269.2l-82.6,0l0,269.2zm13.4,-166.6l55.9,0l0,153.2l-55.9,0l0,-153.2z"/>
  <path fill="#785494" id="svg_6" d="m423.4,48.2l0,448.7l82.6,0l0,-448.7l-82.6,0zm69.2,435.4l-55.9,0l0,-266.6l55.9,0l0,266.6z"/>
 </g>
</svg>