<svg width="800" height="800" xmlns="http://www.w3.org/2000/svg">

 <g>
  <title>background</title>
  <rect fill="none" id="canvas_background" height="402" width="582" y="-1" x="-1"/>
 </g>
 <g>
  <title>Layer 1</title>
  <path id="svg_2" fill="#4D4D4D" d="m561.335,744.605l-112.857,0l110.428,-541.696c1.955,-9.574 -4.224,-18.911 -13.798,-20.866l-24.566,-5.014l22.098,-108.355c1.944,-9.574 -4.224,-18.911 -13.798,-20.865l-134.571,-27.44c-4.58,-0.928 -9.377,0 -13.285,2.586c-3.918,2.586 -6.643,6.613 -7.58,11.213l-22.09,108.355l-24.567,-4.995c-4.589,-0.928 -9.376,-0.02 -13.295,2.566c-3.908,2.586 -6.633,6.633 -7.57,11.232l-120.95,593.279l-57.811,0c-9.771,0 -17.688,7.917 -17.688,17.688c0,9.771 7.916,17.688 17.688,17.688l434.212,0c9.762,0 17.688,-7.917 17.688,-17.688c-0.001,-9.771 -7.926,-17.688 -17.688,-17.688zm-164.143,-187.335c-9.555,-1.935 -18.922,4.225 -20.865,13.799l-9.377,46.014l-48.739,-9.929l9.376,-46.016c1.955,-9.572 -4.224,-18.91 -13.798,-20.865c-9.594,-1.934 -18.912,4.225 -20.866,13.8l-9.376,46.015l-31.724,-6.475l15.595,-76.515l183.705,37.447l-15.595,76.515l-33.914,-6.909l9.377,-46.016c1.945,-9.574 -4.234,-18.91 -13.799,-20.865zm-106.914,-152.297l183.705,37.447l-15.793,77.461l-33.913,-6.909l9.376,-46.015c1.954,-9.574 -4.225,-18.911 -13.799,-20.866c-9.535,-1.934 -18.901,4.225 -20.865,13.8l-9.377,46.015l-48.72,-9.93l9.376,-46.015c1.945,-9.574 -4.234,-18.912 -13.798,-20.866c-9.534,-1.935 -18.912,4.225 -20.866,13.799l-9.376,46.015l-31.743,-6.475l15.793,-77.461zm22.661,-111.179l183.705,37.447l-15.595,76.515l-33.914,-6.909l9.189,-45.068c1.944,-9.573 -4.225,-18.91 -13.799,-20.865c-9.555,-1.935 -18.901,4.225 -20.865,13.799l-9.189,45.067l-48.73,-9.93l9.189,-45.087c1.955,-9.574 -4.224,-18.911 -13.798,-20.866c-9.555,-1.895 -18.911,4.226 -20.866,13.799l-9.188,45.088l-31.733,-6.476l15.594,-76.514zm91.597,-235.228l99.905,20.372l-18.565,91.023l-99.896,-20.372l18.556,-91.023zm-67.522,117.161l24.526,4.994c0.011,0 0.021,0.02 0.04,0.02l134.562,27.42c0.009,0 0.009,0 0.009,0l24.558,5.014l-16.996,83.403l-33.914,-6.909l10.699,-52.489c1.955,-9.574 -4.224,-18.932 -13.799,-20.866c-9.584,-1.954 -18.91,4.225 -20.865,13.799l-10.699,52.489l-48.72,-9.929l10.699,-52.51c1.954,-9.555 -4.225,-18.911 -13.798,-20.865c-9.516,-1.915 -18.912,4.224 -20.866,13.798l-10.699,52.51l-31.743,-6.475l17.006,-83.404zm-92.257,452.549l183.704,37.447l-16.088,78.882l-29.838,0c0.01,-13.146 -1.125,-25.682 -3.909,-36.814c-7.027,-28.091 -21.961,-45.817 -42.037,-49.904l-5.399,-1.105c-34.22,-7.008 -69.396,30.006 -85.949,87.824l-24.202,0l23.718,-116.33zm102.61,116.329l-65.084,0c12.298,-35.414 31.564,-55.292 41.85,-53.16l5.389,1.105c5.646,1.145 11.45,10.502 14.786,23.827c2.083,8.311 3,17.965 3.059,28.228z"/>
  <path id="svg_3" fill="#4D4D4D" d="m672.878,744.605l-43.381,0c-9.771,0 -17.687,7.917 -17.687,17.688c0,9.771 7.916,17.688 17.687,17.688l43.381,0c9.761,0 17.687,-7.917 17.687,-17.688c-0.001,-9.771 -7.926,-17.688 -17.687,-17.688z"/>
 </g>
</svg>